# xmcd
#
# Track frame offsets:
# 150
# 1407
# 13180
# 24916
# 40248
# 52314
# 66260
# 74260
# 86430
# 100400
# 114370
# 129361
# 139992
# 150953
# 167274
# 182432
#
# Disc length: 3065 seconds
#
#
# Revision: 0
# Processed by: cddbd v1.5.2PL0 Copyright (c) Steve Scherf et al.
# Submitted via: FreeRIP 2.70 
#
DISCID=c70bf710
DTITLE=c70bf710 - the best romantic collection
DYEAR=1900
DGENRE=Ballad
TTITLE0=Aline
TTITLE1=murmures
TTITLE2=A comme Amour
TTITLE3=ballade puor adeline
TTITLE4=Diva (play with Nicolas De Angelis)
TTITLE5=Ronde Pour un tour petlt enfant
TTITLE6=Mariagge D'amour
TTITLE7=poetic sonatinaa
TTITLE8=Eleana
TTITLE9=Amore caro-Amore Ballo
TTITLE10=Chinese garden
TTITLE11=Yesterday
TTITLE12=Apenso A te
TTITLE13=candle in the win 97
TTITLE14=Beatles medley
TTITLE15=Hey Jade/yeaterday/get back
EXTD=
EXTT0=
EXTT1=
EXTT2=
EXTT3=
EXTT4=
EXTT5=
EXTT6=
EXTT7=
EXTT8=
EXTT9=
EXTT10=
EXTT11=
EXTT12=
EXTT13=
EXTT14=
EXTT15=
PLAYORDER=
